<svg width="15" height="14" viewBox="0 0 15 14" fill="none" xmlns="http://www.w3.org/2000/svg">
<g clip-path="url(#clip0_8_200)">
<path d="M10.4852 0H4.6012C3.52207 0.00148342 2.48761 0.4311 1.72492 1.19454C0.962226 1.95798 0.533626 2.99286 0.533203 4.072V5.9584C0.534878 6.16425 0.617451 6.36119 0.763091 6.50668C0.90873 6.65217 1.10575 6.73454 1.3116 6.736C1.51746 6.73454 1.71448 6.65217 1.86012 6.50668C2.00575 6.36119 2.08833 6.16425 2.09 5.9584V4.0728C2.09 2.684 3.21 1.5544 4.5908 1.5544H10.4756C11.8556 1.5544 12.9764 2.684 12.9764 4.0728V9.9272C12.9764 11.316 11.8556 12.4456 10.4748 12.4456H8.566C8.36015 12.4471 8.16313 12.5294 8.01749 12.6749C7.87185 12.8204 7.78928 13.0173 7.7876 13.2232C7.78949 13.4289 7.87215 13.6256 8.01777 13.771C8.16339 13.9163 8.36029 13.9985 8.566 14H10.4748C12.7172 14 14.5332 12.176 14.5332 9.928V4.072C14.5332 1.8344 12.7068 0 10.4748 0H10.4852Z" fill="black"/>
<path d="M8.31636 8.54956C8.31469 8.34371 8.23211 8.14677 8.08648 8.00128C7.94084 7.85579 7.74382 7.77342 7.53796 7.77196H6.50036L6.98836 5.38876C7.07076 4.96396 7.44436 4.66316 7.88036 4.66316C8.11956 4.66316 8.35796 4.75676 8.52356 4.93276C8.67026 5.07737 8.86797 5.15844 9.07396 5.15844C9.27995 5.15844 9.47767 5.07737 9.62436 4.93276C9.76902 4.78657 9.85016 4.58922 9.85016 4.38356C9.85016 4.1779 9.76902 3.98055 9.62436 3.83436C9.16111 3.37249 8.53451 3.11179 7.88036 3.10876C7.3133 3.11177 6.76434 3.30871 6.32469 3.66687C5.88504 4.02502 5.58117 4.52282 5.46356 5.07756L4.91316 7.77196H3.38676C3.18091 7.77342 2.98389 7.85579 2.83825 8.00128C2.69261 8.14677 2.61004 8.34371 2.60836 8.54956C2.61025 8.75527 2.69291 8.952 2.83853 9.09732C2.98415 9.24264 3.18105 9.3249 3.38676 9.32636H4.59156L4.10356 11.7104C4.02036 12.1344 3.64756 12.4352 3.21156 12.4352H3.04516C2.80676 12.4352 2.56756 12.3424 2.40196 12.1656C2.2553 12.0212 2.05776 11.9403 1.85196 11.9403C1.64617 11.9403 1.44862 12.0212 1.30196 12.1656C1.15731 12.3118 1.07617 12.5091 1.07617 12.7148C1.07617 12.9205 1.15731 13.1178 1.30196 13.264C1.75796 13.72 2.39156 13.9896 3.04516 13.9896H3.21156C3.77865 13.9868 4.32771 13.7901 4.76751 13.4321C5.20731 13.074 5.51137 12.5763 5.62916 12.0216L6.17956 9.32636H7.53956C7.74514 9.32469 7.94184 9.24234 8.08728 9.09704C8.23273 8.95175 8.31448 8.75514 8.31636 8.54956Z" fill="black"/>
</g>
<defs>
<clipPath id="clip0_8_200">
<rect width="15" height="14" fill="white"/>
</clipPath>
</defs>
</svg>
