<svg width="14" height="14" viewBox="0 0 14 14" fill="none" xmlns="http://www.w3.org/2000/svg">
<g clip-path="url(#clip0_8_203)">
<path d="M2.06086 13.4969C1.1999 13.4969 0.501953 12.7989 0.501953 11.938V8.42816C0.501953 7.56721 1.1999 6.86926 2.06086 6.86926C2.92181 6.86926 3.61976 7.5672 3.61976 8.42816V11.938C3.61976 12.7989 2.92181 13.4969 2.06086 13.4969ZM6.99831 13.4969C6.14037 13.4969 5.44488 12.8014 5.44488 11.9434V2.05026C5.44488 1.19232 6.14037 0.496826 6.99831 0.496826C7.85624 0.496826 8.55173 1.19232 8.55173 2.05026V11.9434C8.55173 12.8014 7.85624 13.4969 6.99831 13.4969ZM11.9394 13.4969C11.0764 13.4969 10.3769 12.7973 10.3769 11.9343V5.92825C10.3769 5.06527 11.0764 4.3657 11.9394 4.3657C12.8024 4.3657 13.502 5.06527 13.502 5.92825V11.9343C13.502 12.7973 12.8024 13.4969 11.9394 13.4969Z" fill="black"/>
</g>
<defs>
<clipPath id="clip0_8_203">
<rect width="14" height="14" fill="white"/>
</clipPath>
</defs>
</svg>
