<svg width="16" height="16" viewBox="0 0 16 16" fill="none" xmlns="http://www.w3.org/2000/svg">
<g clip-path="url(#clip0_8_198)">
<path d="M10.0006 12.6667C10.0006 12.0333 10.1894 11.4833 10.5672 11.0167C10.945 10.55 11.4228 10.2389 12.0006 10.0833V5.89996C11.5339 5.77774 11.1311 5.54718 10.7922 5.20829C10.4533 4.8694 10.2228 4.46663 10.1006 3.99996H5.91724C5.76168 4.57774 5.45057 5.05552 4.9839 5.43329C4.51724 5.81107 3.96724 5.99996 3.3339 5.99996C2.60057 5.99996 1.97279 5.73885 1.45057 5.21663C0.928347 4.6944 0.667236 4.06663 0.667236 3.33329C0.667236 2.59996 0.928347 1.97218 1.45057 1.44996C1.97279 0.927737 2.60057 0.666626 3.3339 0.666626C3.96724 0.666626 4.51724 0.855515 4.9839 1.23329C5.45057 1.61107 5.76168 2.08885 5.91724 2.66663H10.1006C10.2561 2.08885 10.5672 1.61107 11.0339 1.23329C11.5006 0.855515 12.045 0.666626 12.6672 0.666626C13.4006 0.666626 14.0283 0.927738 14.5506 1.44996C15.0728 1.97218 15.3339 2.59996 15.3339 3.33329C15.3339 3.95552 15.145 4.49996 14.7672 4.96663C14.3894 5.43329 13.9117 5.7444 13.3339 5.89996V10.0833C13.9117 10.2389 14.3894 10.55 14.7672 11.0167C15.145 11.4833 15.3339 12.0333 15.3339 12.6667C15.3339 13.4 15.0728 14.0278 14.5506 14.55C14.0283 15.0722 13.4006 15.3333 12.6672 15.3333C11.9339 15.3333 11.3061 15.0722 10.7839 14.55C10.2617 14.0278 10.0006 13.4 10.0006 12.6667ZM0.667236 12.6667C0.667236 11.9333 0.928346 11.3055 1.45057 10.7833C1.97279 10.2611 2.60057 9.99996 3.3339 9.99996C4.06724 9.99996 4.69501 10.2611 5.21724 10.7833C5.73946 11.3055 6.00057 11.9333 6.00057 12.6667C6.00057 13.4 5.73946 14.0278 5.21724 14.55C4.69501 15.0722 4.06724 15.3333 3.3339 15.3333C2.60057 15.3333 1.97279 15.0722 1.45057 14.55C0.928346 14.0278 0.667236 13.4 0.667236 12.6667Z" fill="black"/>
</g>
<defs>
<clipPath id="clip0_8_198">
<rect width="16" height="16" fill="white"/>
</clipPath>
</defs>
</svg>
