<svg width="1377" height="277" viewBox="0 0 1377 277" fill="none" xmlns="http://www.w3.org/2000/svg">
<path d="M555.167 233.069C561.354 233.069 566.722 228.799 568.114 222.771L592.9 115.41C606.916 53.8104 562.477 1.47659 502.66 1.47656H500.567C452.024 1.47656 414.699 31.3667 404.957 73.5644L368.133 233.069H418.942C425.123 233.069 430.487 228.807 431.885 222.786L463.217 87.8141C467.532 69.5672 484.226 57.9473 499.15 57.9474L499.259 57.9473C520.622 57.9474 540.074 78.6146 533.638 106.123L504.371 233.069H555.167Z" fill="#FDFCFC"/>
<path d="M199.429 7.16321L172.265 124.822C158.249 186.422 202.688 238.756 262.505 238.756H264.598C313.141 238.756 350.465 208.866 360.207 166.668L395.153 15.3013C396.114 11.1382 392.953 7.16321 388.68 7.16321H335.667L301.947 152.418C297.632 170.665 280.939 182.285 266.014 182.285H265.906C244.543 182.285 225.091 161.618 231.527 134.109L258.918 15.2994C259.878 11.1367 256.716 7.16321 252.444 7.16321H199.429Z" fill="#FDFCFC"/>
<path d="M63.7423 227.924C63.0458 230.937 60.3619 233.072 57.2691 233.072H0.585938L32.492 96.5758C44.5491 44.064 82.1481 7.15344 140.54 7.15344H179.434L166.891 61.789C166.198 64.8069 163.513 66.946 160.416 66.946L140.54 66.9461C117.339 66.9461 98.2916 79.2859 92.2171 104.723L63.7423 227.924Z" fill="#FDFCFC"/>
<path d="M1045.89 233.016L1098.34 233.017C1104.52 233.017 1109.89 228.747 1111.28 222.719L1151.61 48.0244C1156.45 27.2019 1141.04 7.24493 1119.66 7.23524L967.712 7.1731C962.626 7.17102 957.985 10.0726 955.759 14.6461L929.828 67.9312H1039.85L856.095 233.178H933.208C938.1 233.178 942.821 231.379 946.473 228.124L1071.51 116.63L1045.89 233.016Z" fill="#FDFCFC"/>
<path d="M795.726 180.841L874.321 7.14875L928.922 7.04661C933.832 7.03742 937.055 12.1746 934.911 16.5919L840.741 210.552C834.074 224.285 820.148 233.004 804.882 233.004H735.383L757.073 108.417L700.469 212.225C693.485 225.034 680.061 233.004 665.472 233.004H589.191L641.262 7.25599H693.813C698.16 7.25599 701.336 11.3617 700.244 15.5692L657.318 180.902L749.21 25.039C757.405 10.9649 772.747 4.08198 785.57 4.41248C799.477 4.77093 817.712 14.8779 815.831 39.27L795.726 180.841Z" fill="#FDFCFC"/>
<path d="M1211.93 276.859C1216.59 276.85 1220.9 274.406 1223.3 270.417L1375.45 17.2701C1378.11 12.842 1374.93 7.20396 1369.76 7.20396H1316.78L1234.41 144.93L1222.31 13.16C1222 9.74636 1219.14 7.13164 1215.71 7.12394L1163.87 7.00745L1189.77 218.119L1154.78 276.967L1211.93 276.859Z" fill="#FDFCFC"/>
</svg>
